<?xml version="1.0" standalone="no"?>
<!DOCTYPE svg PUBLIC "-//W3C//DTD SVG 20010904//EN"
 "http://www.w3.org/TR/2001/REC-SVG-20010904/DTD/svg10.dtd">
<svg version="1.0" xmlns="http://www.w3.org/2000/svg"
 width="611.000000pt" height="86.000000pt" viewBox="0 0 611.000000 86.000000"
 preserveAspectRatio="xMidYMid meet">

<g transform="translate(0.000000,86.000000) scale(0.100000,-0.100000)"
fill="#000000" stroke="none">
<path d="M2640 670 c-79 -8 -169 -47 -211 -92 -43 -45 -80 -132 -86 -198 -6
-70 23 -156 72 -216 19 -23 35 -46 35 -51 0 -14 69 -50 134 -68 51 -15 68 -16
115 -5 84 17 91 20 91 36 0 17 -12 18 -27 3 -6 -6 -27 -11 -47 -12 -20 -1 -36
-5 -36 -9 0 -18 -71 -6 -127 20 -65 30 -133 81 -133 98 0 6 -6 17 -14 23 -7 6
-21 36 -31 66 -13 44 -15 59 -5 70 9 11 9 15 1 15 -22 0 -10 67 23 133 59 115
126 158 251 163 44 2 96 -1 116 -7 36 -9 92 -47 136 -91 12 -12 25 -19 29 -15
4 3 -1 9 -10 13 -9 3 -16 12 -16 20 0 8 -4 14 -9 14 -4 0 -20 12 -34 26 -43
43 -140 71 -217 64z"/>
<path d="M1103 607 c-7 -7 -19 -18 -28 -25 -10 -9 -14 -28 -13 -60 l2 -47 3
48 c3 39 9 50 29 59 13 6 24 17 24 25 0 16 -2 16 -17 0z"/>
<path d="M2248 603 l-28 -14 2 -202 3 -202 2 198 3 198 25 11 c14 6 25 15 25
20 0 4 -1 8 -2 7 -2 -1 -15 -8 -30 -16z"/>
<path d="M2667 510 c3 -63 9 -121 13 -129 9 -16 2 107 -11 189 -5 38 -6 20 -2
-60z"/>
<path d="M3094 611 c-2 -3 9 -10 25 -17 26 -11 30 -19 35 -66 3 -29 5 -123 4
-209 -3 -133 -6 -160 -20 -176 -10 -11 -18 -23 -18 -26 0 -12 280 -8 303 4 35
18 57 51 57 88 0 26 -3 32 -16 27 -9 -3 -18 -6 -20 -6 -2 0 -4 -7 -4 -15 0 -8
-4 -15 -10 -15 -5 0 -10 -7 -10 -15 0 -18 -68 -37 -123 -33 l-42 3 -9 63 c-5
37 -5 79 0 105 l9 42 55 -3 c44 -3 59 -8 76 -28 25 -30 34 -23 25 19 -4 18 -6
50 -4 72 l5 40 -25 -29 c-20 -25 -32 -30 -84 -34 l-60 -4 -6 43 c-3 24 -1 65
4 91 l11 48 66 0 c96 0 112 -6 112 -41 0 -18 6 -32 15 -36 24 -9 27 1 18 58
l-8 53 -178 1 c-98 0 -181 -2 -183 -4z"/>
<path d="M3510 608 c0 -5 9 -8 20 -8 11 0 29 -9 39 -19 17 -17 20 -35 20 -146
1 -129 8 -202 21 -220 4 -5 10 -23 14 -38 5 -22 19 -34 59 -53 98 -45 222 -23
281 50 42 52 46 68 54 255 5 97 11 156 18 158 6 2 19 10 30 17 15 12 6 13 -71
11 -50 -2 -92 -4 -95 -4 -3 -1 15 -12 40 -24 l45 -22 -1 -158 -2 -159 -30 -41
c-39 -55 -64 -67 -138 -67 -59 0 -63 2 -100 40 -22 22 -42 50 -46 62 -8 31 -9
149 -1 242 5 62 10 81 29 99 13 12 24 24 24 27 0 3 -47 5 -105 5 -58 0 -105
-3 -105 -7z"/>
<path d="M4100 608 c0 -3 13 -9 30 -13 56 -12 60 -30 60 -241 0 -179 -1 -192
-21 -215 l-21 -24 88 -3 c86 -3 133 10 82 23 -36 9 -48 44 -48 140 l0 85 39 0
c47 0 68 -22 111 -117 34 -75 85 -133 116 -133 32 0 74 21 74 37 0 7 -10 13
-22 13 -13 0 -30 6 -39 13 -15 11 -109 183 -109 199 0 4 12 14 28 22 55 28 66
130 19 173 -48 44 -66 48 -229 48 -87 0 -158 -3 -158 -7z m289 -32 c34 -18 51
-54 51 -110 0 -59 -19 -74 -100 -78 l-65 -3 -3 89 c-2 49 -1 95 2 103 7 18 79
17 115 -1z"/>
<path d="M4780 605 c-61 -28 -99 -65 -127 -123 -23 -48 -27 -69 -27 -138 1
-76 3 -83 39 -132 21 -29 58 -65 84 -80 40 -23 57 -27 126 -27 93 0 139 20
194 81 45 52 62 104 62 195 0 111 -31 173 -106 212 -53 28 -194 35 -245 12z
m141 -15 c78 -22 139 -121 139 -228 0 -153 -60 -232 -177 -232 -49 0 -95 32
-135 94 l-39 61 4 105 c3 95 6 109 32 148 17 26 38 45 54 48 14 3 31 7 36 9
20 7 51 5 86 -5z"/>
<path d="M5184 608 c-3 -4 5 -12 18 -17 50 -19 52 -30 53 -236 0 -170 -2 -195
-17 -212 -10 -11 -18 -23 -18 -26 0 -10 188 -8 194 2 3 4 -12 13 -32 19 -28 9
-38 17 -40 34 -6 82 -1 370 8 393 10 26 13 27 65 23 39 -3 62 -11 79 -27 30
-28 42 -91 26 -131 -15 -36 -67 -62 -108 -54 -35 7 -51 -10 -23 -25 52 -28
144 -2 186 53 53 70 30 160 -50 197 -34 15 -332 22 -341 7z"/>
<path d="M885 600 c-3 -5 -2 -10 4 -10 5 0 13 5 16 10 3 6 2 10 -4 10 -5 0
-13 -4 -16 -10z"/>
<path d="M1443 600 c-27 -11 -31 -34 -36 -210 -3 -114 -7 -142 -25 -177 -39
-74 -111 -108 -223 -101 -50 3 -64 1 -51 -7 9 -5 46 -9 82 -9 77 1 151 31 177
72 10 15 20 29 24 32 19 16 32 93 36 228 6 152 6 153 32 167 29 16 19 19 -16
5z"/>
<path d="M140 580 c-13 -13 -19 -32 -18 -52 l1 -33 4 33 c3 24 13 38 36 53 22
13 26 19 15 19 -10 0 -27 -9 -38 -20z"/>
<path d="M1708 593 c6 -2 18 -2 25 0 6 3 1 5 -13 5 -14 0 -19 -2 -12 -5z"/>
<path d="M5781 551 c-11 -28 -25 -52 -30 -56 -5 -3 -15 -22 -22 -43 -6 -20
-20 -55 -30 -77 -10 -22 -30 -69 -44 -105 -15 -36 -40 -84 -56 -108 -16 -24
-29 -45 -29 -48 0 -2 34 -4 75 -4 78 0 96 11 46 28 -19 7 -31 19 -33 34 -3 22
20 100 34 114 8 7 160 6 181 -1 16 -7 47 -73 47 -103 0 -12 -9 -30 -20 -39
-11 -10 -20 -21 -20 -25 0 -5 46 -8 103 -8 l102 1 -36 32 c-20 18 -46 57 -59
87 -12 30 -29 64 -36 75 -8 11 -14 26 -14 33 0 8 -18 50 -40 93 -22 44 -40 87
-40 95 0 22 -32 74 -46 74 -6 0 -21 -22 -33 -49z m49 -121 c7 -28 16 -53 21
-56 5 -3 9 -14 9 -25 0 -17 -7 -19 -70 -19 -80 0 -82 3 -51 73 10 23 21 50 25
60 3 10 15 17 30 17 21 0 26 -7 36 -50z"/>
<path d="M356 548 c9 -59 14 -60 14 -5 0 26 -5 47 -10 47 -6 0 -8 -16 -4 -42z"/>
<path d="M492 583 c-24 -5 -39 -27 -53 -77 -8 -29 -7 -30 6 -12 8 11 15 25 15
31 0 23 37 45 91 54 l54 9 -45 -1 c-25 0 -55 -2 -68 -4z"/>
<path d="M713 583 c-7 -2 -13 -12 -13 -21 1 -16 2 -16 13 0 9 10 32 18 63 21
l49 3 -50 1 c-27 1 -56 -1 -62 -4z"/>
<path d="M1656 568 c-3 -13 -5 -70 -4 -128 1 -103 1 -104 9 -40 4 36 6 81 3
100 -3 20 0 48 5 63 6 15 7 27 2 27 -5 0 -11 -10 -15 -22z"/>
<path d="M890 558 c0 -14 -3 -33 -6 -42 -4 -11 -1 -16 10 -16 18 0 22 45 6 70
-8 12 -10 9 -10 -12z"/>
<path d="M360 470 c0 -5 5 -10 10 -10 6 0 10 5 10 10 0 6 -4 10 -10 10 -5 0
-10 -4 -10 -10z"/>
<path d="M2022 393 c-1 -34 -7 -74 -12 -89 -6 -15 -8 -29 -6 -32 13 -12 27 58
23 117 l-3 66 -2 -62z"/>
<path d="M2835 350 c-27 -5 -71 -9 -97 -9 -26 -1 -50 -5 -53 -11 -9 -14 -19
-226 -11 -219 4 4 9 51 12 104 2 54 7 102 10 106 3 5 36 9 73 9 85 0 161 10
161 21 0 10 -23 10 -95 -1z"/>
<path d="M2407 340 c4 -4 60 -11 123 -14 72 -5 111 -4 105 2 -5 5 -61 12 -123
15 -63 2 -110 1 -105 -3z"/>
<path d="M370 261 c0 -82 -67 -151 -150 -151 -30 -1 -32 -2 -16 -11 27 -16 85
6 135 51 39 36 41 40 41 99 0 33 -2 61 -5 61 -3 0 -5 -22 -5 -49z"/>
<path d="M81 274 c0 -11 3 -14 6 -6 3 7 2 16 -1 19 -3 4 -6 -2 -5 -13z"/>
<path d="M1062 270 c0 -14 2 -19 5 -12 2 6 2 18 0 25 -3 6 -5 1 -5 -13z"/>
<path d="M1956 213 c-23 -26 -61 -56 -90 -69 -46 -21 -65 -24 -188 -24 -76 0
-138 -3 -138 -7 0 -5 64 -8 143 -7 133 1 145 2 193 27 47 24 124 98 124 119 0
12 -2 10 -44 -39z"/>
<path d="M106 225 c9 -14 18 -25 20 -25 2 0 -2 11 -8 25 -6 14 -15 25 -20 25
-5 0 -1 -11 8 -25z"/>
<path d="M700 205 c0 -8 4 -15 10 -15 5 0 7 7 4 15 -4 8 -8 15 -10 15 -2 0 -4
-7 -4 -15z"/>
<path d="M2300 133 c0 -10 -27 -13 -100 -13 -55 0 -100 -3 -100 -7 0 -5 50 -9
110 -9 61 -1 110 1 110 5 0 13 -20 36 -20 24z"/>
<path d="M675 123 c-66 -2 -123 -7 -128 -12 -4 -4 49 -7 120 -5 76 2 129 8
131 14 2 5 2 9 0 8 -1 -1 -57 -4 -123 -5z"/>
</g>
</svg>
